<svg xmlns="http://www.w3.org/2000/svg" viewBox="0 0 500 500"><g id="freepik--background-complete--inject-14"><rect y="382.4" width="500" height="0.25" style="fill:#ebebeb"></rect><rect x="393.11" y="398.62" width="16.56" height="0.25" style="fill:#ebebeb"></rect><rect x="329.19" y="394.99" width="37.81" height="0.25" style="fill:#ebebeb"></rect><rect x="265" y="389.21" width="69.08" height="0.25" style="fill:#ebebeb"></rect><rect x="52.46" y="390.89" width="12.69" height="0.25" style="fill:#ebebeb"></rect><rect x="74.06" y="390.89" width="36.83" height="0.25" style="fill:#ebebeb"></rect><rect x="152.33" y="395.11" width="59.53" height="0.25" style="fill:#ebebeb"></rect><path d="M237,337.8H43.91a5.71,5.71,0,0,1-5.7-5.71V60.66A5.71,5.71,0,0,1,43.91,55H237a5.71,5.71,0,0,1,5.71,5.71V332.09A5.71,5.71,0,0,1,237,337.8ZM43.91,55.2a5.46,5.46,0,0,0-5.45,5.46V332.09a5.46,5.46,0,0,0,5.45,5.46H237a5.47,5.47,0,0,0,5.46-5.46V60.66A5.47,5.47,0,0,0,237,55.2Z" style="fill:#ebebeb"></path><path d="M453.31,337.8H260.21a5.72,5.72,0,0,1-5.71-5.71V60.66A5.72,5.72,0,0,1,260.21,55h193.1A5.71,5.71,0,0,1,459,60.66V332.09A5.71,5.71,0,0,1,453.31,337.8ZM260.21,55.2a5.47,5.47,0,0,0-5.46,5.46V332.09a5.47,5.47,0,0,0,5.46,5.46h193.1a5.47,5.47,0,0,0,5.46-5.46V60.66a5.47,5.47,0,0,0-5.46-5.46Z" style="fill:#ebebeb"></path><rect x="303.53" y="90.56" width="123.56" height="281.78" style="fill:#f5f5f5"></rect><path d="M416.48,365.58H314.14a3.86,3.86,0,0,1-3.86-3.86V101.17a3.86,3.86,0,0,1,3.86-3.86H416.48a3.87,3.87,0,0,1,3.86,3.86V361.72A3.87,3.87,0,0,1,416.48,365.58ZM314.14,97.81a3.36,3.36,0,0,0-3.36,3.36V361.72a3.36,3.36,0,0,0,3.36,3.36H416.48a3.36,3.36,0,0,0,3.36-3.36V101.17a3.36,3.36,0,0,0-3.36-3.36Z" style="fill:#e0e0e0"></path><polygon points="427.09 382.4 413.64 382.4 409.86 372.33 427.09 372.33 427.09 382.4" style="fill:#f5f5f5"></polygon><polygon points="315.23 382.4 328.67 382.4 332.45 372.33 315.23 372.33 315.23 382.4" style="fill:#e0e0e0"></polygon><polygon points="303.53 382.4 316.98 382.4 320.75 372.33 303.53 372.33 303.53 382.4" style="fill:#f5f5f5"></polygon><rect x="427.09" y="90.56" width="12" height="291.84" transform="translate(866.17 472.95) rotate(180)" style="fill:#e0e0e0"></rect><path d="M365.31,365.58a.25.25,0,0,1-.25-.25V97.56a.25.25,0,0,1,.5,0V365.33A.25.25,0,0,1,365.31,365.58Z" style="fill:#e0e0e0"></path><path d="M378.84,231.44a3.22,3.22,0,1,1-3.22-3.22A3.23,3.23,0,0,1,378.84,231.44Z" style="fill:#e0e0e0"></path><path d="M358.22,231.44a3.22,3.22,0,1,1-3.22-3.22A3.23,3.23,0,0,1,358.22,231.44Z" style="fill:#e0e0e0"></path><rect x="69.15" y="278.81" width="12.67" height="102.22" transform="translate(150.96 659.83) rotate(180)" style="fill:#e0e0e0"></rect><path d="M65.15,278.8V381H252.33V278.8ZM248.33,377H69.15V282.8H248.33Z" style="fill:#f5f5f5"></path><path d="M65.15,311.15v4H252.33v-4Z" style="fill:#f5f5f5"></path><path d="M65.15,344.68v4H252.33v-4Z" style="fill:#f5f5f5"></path><rect x="252.33" y="278.81" width="12.67" height="102.22" transform="translate(517.33 659.83) rotate(180)" style="fill:#e0e0e0"></rect><rect x="68.26" y="381.02" width="193.63" height="1.37" style="fill:#e0e0e0"></rect><rect x="82.62" y="175.73" width="174.92" height="96.89" rx="0.72" style="fill:#e0e0e0"></rect><polygon points="177.72 278.04 162.99 278.04 164.05 254.97 178.78 254.97 177.72 278.04" style="fill:#e0e0e0"></polygon><polygon points="176.92 278.04 162.19 278.04 163.24 254.97 177.97 254.97 176.92 278.04" style="fill:#e6e6e6"></polygon><rect x="81.81" y="175.73" width="174.92" height="96.89" rx="0.72" style="fill:#f0f0f0"></rect><path d="M251.17,270.55a.76.76,0,1,0,.76-.76A.76.76,0,0,0,251.17,270.55Z" style="fill:#e0e0e0"></path><path d="M247.62,270.55a.77.77,0,0,0,.77.77.77.77,0,1,0-.77-.77Z" style="fill:#fff"></path><rect x="124.83" y="140.72" width="88.89" height="166.92" rx="1.3" transform="translate(393.45 54.9) rotate(90)" style="fill:#e0e0e0"></rect><path d="M185.85,276.75H155.39a2.05,2.05,0,0,0-2,2.05H187.9A2.05,2.05,0,0,0,185.85,276.75Z" style="fill:#e0e0e0"></path><path d="M180,276.75H149.51a2.05,2.05,0,0,0-2.06,2.05H182A2.05,2.05,0,0,0,180,276.75Z" style="fill:#e6e6e6"></path><rect x="117.89" y="81.83" width="104.31" height="67.72" style="fill:#e0e0e0"></rect><rect x="116.35" y="81.83" width="104.31" height="67.72" style="fill:#f5f5f5"></rect><rect x="141.55" y="70.44" width="53.92" height="90.5" transform="translate(284.2 -52.81) rotate(90)" style="fill:#fafafa"></rect><polygon points="133.56 142.65 152.28 88.74 173.29 88.74 154.57 142.65 133.56 142.65" style="fill:#fff"></polygon><polygon points="159.74 142.65 178.47 88.74 190.86 88.74 172.13 142.65 159.74 142.65" style="fill:#fff"></polygon></g><g id="freepik--Shadow--inject-14"><ellipse id="freepik--path--inject-14" cx="250" cy="416.24" rx="193.89" ry="11.32" style="fill:#f5f5f5"></ellipse></g><g id="freepik--Character--inject-14"><path d="M359.87,125.62c-3.8,1.58-8.46,14,.56,19.66,5,3.13,12.27-6,13.26-12.77C374.37,127.86,370.74,121.1,359.87,125.62Z" style="fill:#263238"></path><path d="M337.51,123.79c-3.8,1.58-5.35,19.6.57,19.66s12.26-6,13.26-12.77C352,126,348.39,119.27,337.51,123.79Z" style="fill:#263238"></path><path d="M344.94,133.27c3.46,1,11-20.12,6.53-24.73s-11.47-2.07-14.64,5.6C334.67,119.36,335,130.5,344.94,133.27Z" style="fill:#263238"></path><path d="M333,165.51c-.15,2.75-.46,5.25-.8,7.86s-.8,5.13-1.3,7.69-1.09,5.1-1.79,7.64-1.5,5-2.38,7.54c-.47,1.24-1,2.48-1.48,3.72l-.83,1.83-.42.94a10.69,10.69,0,0,1-.85,1.43,7.5,7.5,0,0,1-1.41,1.52,6.29,6.29,0,0,1-4.87,1.39,7.93,7.93,0,0,1-1.95-.55,12.73,12.73,0,0,1-4.21-3.27,37,37,0,0,1-4.63-6.84c-.64-1.16-1.23-2.34-1.77-3.53s-1.06-2.36-1.53-3.63l4.11-2.16c1.42,1.95,2.94,3.94,4.46,5.81a40.23,40.23,0,0,0,4.68,5,5.52,5.52,0,0,0,1.86,1.17s0,0-.14-.08a1.68,1.68,0,0,0-.7,0,1.86,1.86,0,0,0-.66.3c-.13.08-.18.15-.17.11a1.45,1.45,0,0,1,.07-.23l.31-.8.63-1.65c.4-1.11.75-2.25,1.13-3.37.69-2.29,1.34-4.6,1.87-7s1-4.73,1.49-7.12.77-4.81,1.11-7.23.6-4.89.81-7.17Z" style="fill:#7f3e3b"></path><path d="M327.21,154.34c-3.24.83-5.07,22.26-5.07,22.26l8.62,5.18S336,166,335.17,159.11C334.6,154.15,329.65,153.72,327.21,154.34Z" style="fill:#7f3e3b"></path><path d="M307.15,187.54l-4.42-8.15-3.4,8.69s3.77,4.53,7.51,3.76Z" style="fill:#7f3e3b"></path><polygon points="300.2 177.34 297.75 184.77 299.33 188.08 302.73 179.39 300.2 177.34" style="fill:#7f3e3b"></polygon><polygon points="345.63 406.2 336.45 406.2 332.55 372.49 345.15 372.49 345.63 406.2" style="fill:#7f3e3b"></polygon><polygon points="402.6 391.83 393.9 394.76 380.73 365.18 393.03 361.7 402.6 391.83" style="fill:#7f3e3b"></polygon><path d="M392.39,393.38l9.18-4.69a.72.72,0,0,1,.93.22l4.77,6.73a1.47,1.47,0,0,1-.57,2.12c-3.23,1.58-4.87,2.18-8.9,4.25-2.48,1.27-6,3.39-9.41,5.14s-5.35-1.54-4.08-2.58c5.7-4.65,5.74-7.07,7-10A2.41,2.41,0,0,1,392.39,393.38Z" style="fill:#263238"></path><path d="M336.14,405.14h10.31a.73.73,0,0,1,.73.62l1.17,8.16a1.46,1.46,0,0,1-1.47,1.63c-3.59-.06-5.32-.27-9.86-.27-2.79,0-8.56.29-12.41.29s-4.06-3.81-2.45-4.16c7.19-1.54,10-3.68,12.44-5.71A2.39,2.39,0,0,1,336.14,405.14Z" style="fill:#263238"></path><path d="M326.64,154.33s-4.38,1.54,4.38,55.38h37.27c-.62-15.16-.64-24.52,6.61-55.65A110.22,110.22,0,0,0,359.07,152a117.77,117.77,0,0,0-16.92,0C334.88,152.64,326.64,154.33,326.64,154.33Z" style="fill:#263238"></path><path d="M357.4,132.92c-1.07,5.44-2.14,15.42,1.67,19.05a64.34,64.34,0,0,1-16.41,12.59c-5.29-8.57-.51-12.58-.51-12.58,6.07-1.45,5.91-6,4.86-10.19Z" style="fill:#7f3e3b"></path><path d="M353.16,136.54,347,141.78a17.91,17.91,0,0,1,.52,3c2.32-.34,5.51-2.88,5.76-5.31A8.14,8.14,0,0,0,353.16,136.54Z" style="opacity:0.2"></path><path d="M361.47,122c-1.1,9-1.37,12.89-6.23,17.27-7.31,6.6-18.18,3.27-19.8-5.92-1.46-8.27.58-21.66,9.68-24.74A12.42,12.42,0,0,1,361.47,122Z" style="fill:#7f3e3b"></path><path d="M331,209.71s-7.24,70.7-6.64,98.68c.63,29.11,6.48,65.11,6.48,65.11h15.95s-.69-34.3.41-62.88c1.19-31.17,11.09-100.91,11.09-100.91Z" style="fill:#407BFF"></path><path d="M331,209.71s-7.24,70.7-6.64,98.68c.63,29.11,6.48,65.11,6.48,65.11h15.95s-.69-34.3.41-62.88c1.19-31.17,11.09-100.91,11.09-100.91Z" style="fill:#fff;opacity:0.30000000000000004"></path><polygon points="348.18 375.1 330.13 375.1 328.81 370.45 349.02 369.89 348.18 375.1" style="fill:#263238"></polygon><path d="M347.1,227.3c-9.16,18.42-1.84,52,1.4,64.51,1.66-18.77,4.46-41.72,6.64-58.57C353.75,223.71,351.32,218.81,347.1,227.3Z" style="opacity:0.2"></path><path d="M340.86,209.71s8.45,73.5,14.82,97.09c7.57,28,23.05,58.95,23.05,58.95l16-4.53s-9-37.76-14.79-52.52c-12.35-31.49-1.78-78.43-11.65-99Z" style="fill:#407BFF"></path><path d="M340.86,209.71s8.45,73.5,14.82,97.09c7.57,28,23.05,58.95,23.05,58.95l16-4.53s-9-37.76-14.79-52.52c-12.35-31.49-1.78-78.43-11.65-99Z" style="fill:#fff;opacity:0.30000000000000004"></path><polygon points="395.72 363.66 379.08 368.27 376.09 364.01 394.54 357.86 395.72 363.66" style="fill:#263238"></polygon><path d="M346.64,123.87c-.05.74-.48,1.32-1,1.29s-.84-.65-.79-1.39.47-1.32.95-1.29S346.68,123.13,346.64,123.87Z" style="fill:#263238"></path><path d="M338.28,123.37c0,.74-.47,1.32-.95,1.29s-.84-.65-.79-1.39.47-1.32.95-1.29S338.33,122.63,338.28,123.37Z" style="fill:#263238"></path><path d="M337.7,122l-1.74-.62S336.78,122.86,337.7,122Z" style="fill:#263238"></path><path d="M340.78,124.65a19.69,19.69,0,0,1-2.91,4.56,3.17,3.17,0,0,0,2.6.65Z" style="fill:#630f0f"></path><path d="M344.7,132.83a7.3,7.3,0,0,1-1.25,0,.22.22,0,1,1,0-.43,5.85,5.85,0,0,0,4.91-2,.22.22,0,0,1,.3,0,.21.21,0,0,1,.05.3A6.1,6.1,0,0,1,344.7,132.83Z" style="fill:#263238"></path><path d="M340.33,110.52c-2.26,2.79,14.1,18.1,20.12,15.8s6.44-9.71.66-15.65C357.17,106.61,346.8,102.53,340.33,110.52Z" style="fill:#263238"></path><path d="M362.62,128.55a6.69,6.69,0,0,1-3.17,4c-2.05,1.12-3.59-.59-3.46-2.8.12-2,1.33-5,3.6-5.17A3,3,0,0,1,362.62,128.55Z" style="fill:#7f3e3b"></path><path d="M351.27,120.24a.44.44,0,0,1-.31-.14,3.47,3.47,0,0,0-2.92-1.16.43.43,0,0,1-.5-.35.43.43,0,0,1,.35-.5,4.3,4.3,0,0,1,3.71,1.42.43.43,0,0,1,0,.61A.42.42,0,0,1,351.27,120.24Z" style="fill:#263238"></path><path d="M335.72,119.11a.44.44,0,0,1-.4-.7,4.28,4.28,0,0,1,3.54-1.79.43.43,0,1,1-.06.86,3.45,3.45,0,0,0-2.78,1.46A.49.49,0,0,1,335.72,119.11Z" style="fill:#263238"></path><path d="M378.93,163.87a141.74,141.74,0,0,1,5.53,16.19,91.82,91.82,0,0,1,3.32,17.09l.12,2.28a11.32,11.32,0,0,1,0,1.77,5.82,5.82,0,0,1-1.57,3.32,6.23,6.23,0,0,1-2.54,1.57,8.66,8.66,0,0,1-1.93.39,13.89,13.89,0,0,1-2.87-.08,41.59,41.59,0,0,1-8.82-2.32A115,115,0,0,1,354.68,197l1.86-4.26c2.6.81,5.24,1.62,7.86,2.38s5.24,1.48,7.83,2.1c1.29.31,2.58.58,3.84.8a25.54,25.54,0,0,0,3.56.42,5,5,0,0,0,1.27-.08c.14,0,.18-.07.1-.05a1.75,1.75,0,0,0-.78.5,2.76,2.76,0,0,0-.73,1.46c0,.59-.05-.06-.09-.3l-.2-1.87a107.05,107.05,0,0,0-3.66-15.38c-1.59-5.11-3.41-10.31-5.3-15.25Z" style="fill:#7f3e3b"></path><path d="M374.86,154.06c3.66,1.49,8.24,21.51,8.24,21.51l-7.78,6.37S368,167,367.67,160.14C367.43,155,371.63,152.74,374.86,154.06Z" style="fill:#7f3e3b"></path><path d="M388.42,396.57a1.27,1.27,0,0,1-.72-.82.73.73,0,0,1,.11-.74c.73-.92,4-.59,4.4-.55a.22.22,0,0,1,.19.16.21.21,0,0,1-.07.22c-.93.8-2.66,2.08-3.78,1.77Zm3.22-1.72c-1.32-.1-3.11-.05-3.49.43a.31.31,0,0,0,0,.33.84.84,0,0,0,.55.58C389.27,396.36,390.36,395.86,391.64,394.85Z" style="fill:#407BFF"></path><path d="M390.69,394.51c-1-.39-2-1-2.19-1.67a.77.77,0,0,1,.38-.88,1.13,1.13,0,0,1,.95-.16c1.28.33,2.5,2.68,2.55,2.78a.22.22,0,0,1,0,.22.23.23,0,0,1-.19.1A5.14,5.14,0,0,1,390.69,394.51Zm-.84-2.24-.13,0a.74.74,0,0,0-.6.1c-.23.16-.23.3-.2.4.17.62,1.78,1.47,2.87,1.69A5.46,5.46,0,0,0,389.85,392.27Z" style="fill:#407BFF"></path><path d="M332.69,406.74a3.39,3.39,0,0,1-2.22-.57,1.18,1.18,0,0,1-.4-1.05.71.71,0,0,1,.37-.58c1.13-.62,4.78,1.25,5.2,1.47a.2.2,0,0,1,.11.22.21.21,0,0,1-.17.18A15.23,15.23,0,0,1,332.69,406.74Zm-1.63-1.9a.81.81,0,0,0-.41.08.26.26,0,0,0-.14.23.75.75,0,0,0,.25.7c.55.5,2.06.59,4.1.25A11.91,11.91,0,0,0,331.06,404.84Z" style="fill:#407BFF"></path><path d="M335.54,406.42l-.09,0c-1.1-.5-3.26-2.48-3.09-3.52,0-.24.21-.55.82-.61a1.59,1.59,0,0,1,1.2.37c1.15,1,1.37,3.44,1.37,3.54a.2.2,0,0,1-.09.2A.25.25,0,0,1,335.54,406.42Zm-2.19-3.72h-.13c-.4,0-.42.2-.43.25-.1.63,1.37,2.18,2.48,2.86A5,5,0,0,0,334.1,403,1.13,1.13,0,0,0,333.35,402.7Z" style="fill:#407BFF"></path><path d="M368.85,207.53l.95,3.33c.13.26-.17.53-.6.53H330.84c-.34,0-.62-.17-.64-.38l-.34-3.34c0-.23.27-.42.64-.42h37.74A.67.67,0,0,1,368.85,207.53Z" style="fill:#407BFF"></path><path d="M368.85,207.53l.95,3.33c.13.26-.17.53-.6.53H330.84c-.34,0-.62-.17-.64-.38l-.34-3.34c0-.23.27-.42.64-.42h37.74A.67.67,0,0,1,368.85,207.53Z" style="fill:#fff;opacity:0.8"></path><path d="M363.78,211.75h1c.2,0,.36-.11.34-.23l-.47-4.34c0-.12-.19-.23-.39-.23h-1c-.2,0-.36.11-.34.23l.47,4.34C363.4,211.64,363.58,211.75,363.78,211.75Z" style="fill:#407BFF"></path><path d="M363.78,211.75h1c.2,0,.36-.11.34-.23l-.47-4.34c0-.12-.19-.23-.39-.23h-1c-.2,0-.36.11-.34.23l.47,4.34C363.4,211.64,363.58,211.75,363.78,211.75Z" style="fill:#fff;opacity:0.30000000000000004"></path><path d="M333.68,211.75h1c.2,0,.35-.11.34-.23l-.48-4.34c0-.12-.19-.23-.39-.23h-1c-.2,0-.35.11-.34.23l.48,4.34C333.3,211.64,333.48,211.75,333.68,211.75Z" style="fill:#407BFF"></path><path d="M333.68,211.75h1c.2,0,.35-.11.34-.23l-.48-4.34c0-.12-.19-.23-.39-.23h-1c-.2,0-.35.11-.34.23l.48,4.34C333.3,211.64,333.48,211.75,333.68,211.75Z" style="fill:#fff;opacity:0.30000000000000004"></path><path d="M348.73,211.75h1c.2,0,.35-.11.34-.23l-.47-4.34c0-.12-.19-.23-.39-.23h-1c-.2,0-.35.11-.34.23l.48,4.34C348.35,211.64,348.53,211.75,348.73,211.75Z" style="fill:#407BFF"></path><path d="M348.73,211.75h1c.2,0,.35-.11.34-.23l-.47-4.34c0-.12-.19-.23-.39-.23h-1c-.2,0-.35.11-.34.23l.48,4.34C348.35,211.64,348.53,211.75,348.73,211.75Z" style="fill:#fff;opacity:0.30000000000000004"></path><rect x="299.86" y="166.59" width="49.63" height="70.88" transform="translate(18.11 -26.55) rotate(4.82)" style="fill:#407BFF"></rect><rect x="299.86" y="166.59" width="49.63" height="70.88" transform="translate(18.11 -26.55) rotate(4.82)" style="fill:#fff;opacity:0.9500000000000001"></rect><rect x="302.63" y="166.7" width="49.63" height="4.98" transform="translate(15.37 -26.9) rotate(4.82)" style="fill:#407BFF"></rect><circle cx="325.4" cy="193.42" r="12.9" transform="translate(-48 255.6) rotate(-40.18)" style="fill:#407BFF"></circle><path d="M325.41,209.13c-.44,0-.89,0-1.33,0a15.72,15.72,0,1,1,17-14.34l-.4,0,.4,0A15.72,15.72,0,0,1,325.41,209.13Zm0-30.61a15.09,15.09,0,1,0,1.28.06C326.22,178.54,325.8,178.52,325.37,178.52Z" style="fill:#fff"></path><rect x="307.62" y="215.75" width="32.8" height="3.07" transform="translate(19.39 -26.44) rotate(4.82)" style="fill:#407BFF"></rect><rect x="309.59" y="221.79" width="27.84" height="3.07" transform="translate(19.9 -26.38) rotate(4.82)" style="fill:#407BFF"></rect><rect x="304.66" y="227.1" width="19.46" height="3.07" transform="translate(20.31 -25.6) rotate(4.82)" style="fill:#407BFF"></rect><rect x="326.17" y="228.73" width="15.17" height="3.07" transform="translate(20.52 -27.22) rotate(4.82)" style="fill:#407BFF"></rect><path d="M357.47,192.85l-6.93-7.09-.9,9.29s4.86,3.33,8.25,1.57Z" style="fill:#7f3e3b"></path><polygon points="342.89 184.74 342.56 192.56 350.93 195.8 350.54 185.76 342.89 184.74" style="fill:#7f3e3b"></polygon><path d="M346.05,122.53l-1.74-.61S345.14,123.36,346.05,122.53Z" style="fill:#263238"></path></g><g id="freepik--Collection--inject-14"><rect x="283.63" y="312.13" width="86.88" height="104.1" style="fill:#407BFF"></rect><rect x="283.63" y="312.13" width="86.88" height="104.1" style="opacity:0.30000000000000004"></rect><polygon points="370.51 312.13 283.63 312.13 301.06 302.33 387.94 302.33 370.51 312.13" style="fill:#407BFF"></polygon><polygon points="370.51 312.13 283.63 312.13 301.06 302.33 387.94 302.33 370.51 312.13" style="opacity:0.30000000000000004"></polygon><polygon points="198.94 302.33 112.06 302.33 129.49 312.13 216.37 312.13 198.94 302.33" style="fill:#407BFF"></polygon><polygon points="198.94 302.33 112.06 302.33 129.49 312.13 216.37 312.13 198.94 302.33" style="opacity:0.30000000000000004"></polygon><rect x="129.49" y="312.13" width="154.14" height="104.1" transform="translate(413.12 728.37) rotate(180)" style="fill:#407BFF"></rect><rect x="235.13" y="349.01" width="48.49" height="43.49" transform="translate(518.76 741.51) rotate(180)" style="fill:#f0f0f0;opacity:0.1"></rect><rect x="172.85" y="325.3" width="23.7" height="23.7" transform="translate(-152.45 521.86) rotate(-90)" style="fill:#f0f0f0;opacity:0.1"></rect><rect x="143.5" y="325.3" width="23.7" height="23.7" transform="translate(-181.8 492.51) rotate(-90)" style="fill:#f0f0f0;opacity:0.1"></rect><rect x="283.63" y="349.01" width="25.03" height="43.49" style="fill:#e6e6e6;opacity:0.1"></rect><rect x="173.81" y="170.54" width="71.56" height="89.09" transform="translate(-12.59 13.04) rotate(-3.46)" style="fill:#407BFF"></rect><rect x="173.81" y="170.54" width="71.56" height="89.09" transform="translate(-12.59 13.04) rotate(-3.46)" style="fill:#fff;opacity:0.8"></rect><rect x="171.5" y="170.61" width="71.56" height="12.3" transform="translate(-10.29 12.83) rotate(-3.46)" style="fill:#407BFF"></rect><rect x="177.23" y="188.49" width="62.49" height="16.21" transform="translate(-11.48 12.93) rotate(-3.46)" style="fill:#407BFF;opacity:0.2"></rect><rect x="178.53" y="209.95" width="62.49" height="16.21" transform="translate(-12.77 13.05) rotate(-3.46)" style="fill:#407BFF;opacity:0.2"></rect><rect x="179.82" y="231.42" width="62.49" height="16.21" transform="translate(-14.06 13.17) rotate(-3.46)" style="fill:#407BFF;opacity:0.2"></rect><polygon points="247.99 257.39 211.8 259.58 215.81 210.56 245.33 213.43 247.99 257.39" style="opacity:0.1"></polygon><rect x="155.36" y="274.99" width="108.47" height="37.14" style="fill:#407BFF"></rect><rect x="155.36" y="274.99" width="108.47" height="37.14" style="fill:#fff;opacity:0.5"></rect><rect x="155.36" y="274.99" width="108.47" height="8.9" style="fill:#407BFF"></rect><rect x="162.23" y="287.95" width="94.73" height="11.73" style="fill:#fff;opacity:0.7000000000000001"></rect><rect x="162.23" y="303.52" width="94.73" height="8.61" style="fill:#fff;opacity:0.7000000000000001"></rect><polygon points="263.83 297.83 207.28 293.82 209.59 274.99 263.83 274.99 263.83 297.83" style="opacity:0.1"></polygon><rect x="215.44" y="219.27" width="93.27" height="74.3" transform="translate(29.73 -27.22) rotate(6.3)" style="fill:#407BFF"></rect><rect x="215.44" y="219.27" width="93.27" height="74.3" transform="translate(29.73 -27.22) rotate(6.3)" style="fill:#fff;opacity:0.9"></rect><rect x="219.2" y="219.48" width="93.27" height="5.68" transform="translate(26.01 -27.84) rotate(6.3)" style="fill:#407BFF"></rect><rect x="223.03" y="227.86" width="23.68" height="23.52" transform="translate(27.72 -24.33) rotate(6.3)" style="fill:#407BFF;opacity:0.2"></rect><rect x="219.6" y="258.89" width="23.68" height="23.52" transform="translate(31.11 -23.77) rotate(6.3)" style="fill:#407BFF;opacity:0.2"></rect><rect x="251.62" y="231.02" width="23.68" height="23.52" transform="translate(28.24 -27.45) rotate(6.3)" style="fill:#407BFF;opacity:0.2"></rect><rect x="278.52" y="234.08" width="23.68" height="54.52" transform="translate(30.44 -30.29) rotate(6.3)" style="fill:#407BFF;opacity:0.2"></rect><rect x="248.2" y="262.05" width="23.68" height="23.52" transform="translate(31.63 -26.89) rotate(6.3)" style="fill:#407BFF;opacity:0.2"></rect></g></svg>